<svg width="175" height="48" viewBox="0 0 175 48" fill="none" xmlns="http://www.w3.org/2000/svg">
<path d="M26.1626 29.9983C27.154 28.7586 27.6044 27.061 27.47 25.4444C27.2563 22.8723 24.3509 21.1613 22.0951 22.6598C21.1859 23.2638 20.1762 24.6524 19.4864 25.5414C19.0189 26.1522 18.5406 26.7547 18.0518 27.3489C16.8215 28.8276 15.6006 29.9979 13.5826 30.259C12.0452 30.4547 10.4924 30.0358 9.26621 29.0946C7.93826 28.078 7.07949 26.5727 6.88423 24.9194C6.79762 24.244 6.8318 23.603 6.91976 22.9293C7.13995 21.2436 7.77562 19.7159 8.82794 18.3723C10.357 16.411 12.6101 15.1351 15.089 14.8265C16.4343 14.6607 17.6259 14.8041 18.9136 15.1852C18.0475 15.6865 16.7702 16.478 16.0801 17.2008C14.2256 17.2364 12.4636 18.0113 11.1912 19.3508C9.94495 20.6483 9.26465 22.3995 9.27585 24.1842C9.28219 25.1955 9.73682 26.2612 10.4854 26.924C12.2017 28.4436 14.2442 28.0698 15.6671 26.3955C16.5871 25.3131 17.441 24.249 18.3071 23.1251C19.7777 21.2752 21.1975 19.7944 23.7352 19.6943C25.2837 19.6332 26.7912 20.2106 27.9302 21.2412C29.2235 22.4115 29.885 24.075 29.9389 25.7905C29.9845 27.2461 29.6426 28.7867 28.9638 30.0803C28.8675 30.2637 28.6893 30.6121 28.5632 30.7615C28.1441 31.5799 27.0637 32.5283 26.3517 33.1049C26.188 33.2373 25.6709 33.56 25.4793 33.6418L25.4157 33.6701C24.9298 33.9494 24.3875 34.1727 23.8574 34.3574C22.27 34.9106 19.9334 35.1166 18.3345 34.5055C18.518 34.3698 18.6554 34.2639 18.8279 34.1114C18.9586 33.9699 19.1706 33.825 19.32 33.6887C19.5695 33.469 19.8122 33.241 20.0614 33.0209C20.1604 32.9338 21.0903 32.2521 20.2212 33.0008C20.4231 32.8016 20.5163 32.6502 20.7646 32.5172C21.3484 32.5358 21.7297 32.5449 22.3074 32.4213C22.6375 32.2532 23.1705 32.0922 23.543 31.9184C24.647 31.4028 25.3008 30.8016 26.1626 29.9983Z" fill="#66B18C"/>
<path d="M26.1618 29.9982C26.0562 30.1896 25.8683 30.3926 25.7199 30.5576C24.9551 31.4086 23.9842 31.9693 22.8869 32.2894C22.7314 32.3348 22.469 32.4021 22.3066 32.4213C22.6368 32.2531 23.1698 32.0922 23.5423 31.9183C24.6462 31.4027 25.3001 30.8016 26.1618 29.9982Z" fill="#66B18C"/>
<path d="M25.4102 33.6186C25.4674 33.5668 25.5888 33.5004 25.6604 33.4563C26.2708 33.0811 26.8154 32.6297 27.3267 32.1301C27.7433 31.7233 28.1017 31.276 28.4579 30.8176C28.4813 30.7875 28.5283 30.7725 28.5629 30.7615C28.1439 31.5799 27.0635 32.5283 26.3514 33.1049C26.1877 33.2373 25.6707 33.56 25.479 33.6418L25.4102 33.6186Z" fill="#66B18C"/>
<path d="M18.8281 34.1114C18.9588 33.9699 19.1709 33.825 19.3202 33.6887C19.5697 33.469 19.8124 33.241 20.0617 33.0209C20.1606 32.9338 20.0991 32.9989 20.2214 33.0008C20.139 33.0842 20.0156 33.1946 19.9428 33.2748L19.7888 33.4254C19.5868 33.6156 19.0902 34.0662 18.8281 34.1114Z" fill="#66B18C"/>
<path d="M29.3086 9.06424C29.5471 9.04566 29.6869 9.06781 29.8953 9.18461C30.1623 9.33437 30.425 9.49447 30.6882 9.65049L31.9901 10.4106L32.8799 10.923C33.4684 11.2612 33.7802 11.3927 33.7735 12.1531C33.7684 12.7221 33.7721 13.3107 33.7729 13.8807L33.7749 15.1471C33.7775 16.3226 33.8312 16.353 32.7907 16.9563L31.7881 17.5362C31.1656 17.896 30.5517 18.2649 29.925 18.6235C29.3243 18.9672 28.9656 18.619 28.4539 18.3333C28.266 18.2283 28.0812 18.1154 27.8955 18.0071L25.4506 16.5842C23.6086 16.9854 22.1277 17.3897 20.4541 18.3221C18.3822 19.4764 17.0535 21.0749 15.6112 22.8984C15.1848 23.4259 14.7724 23.992 14.3534 24.5278C14.1219 24.8217 13.9282 25.1623 13.6511 25.417C13.2933 25.7457 12.7053 25.7977 12.2888 25.5545C11.9975 25.3867 11.7895 25.1065 11.7146 24.7805C11.6381 24.4539 11.685 24.117 11.8773 23.8416C12.0968 23.5274 12.3367 23.2095 12.5662 22.9019C13.0792 22.2113 13.6067 21.5315 14.1484 20.863C17.4906 16.7274 19.8987 15.3285 25.0959 14.1847L25.0943 12.7113C25.0935 12.4186 25.079 12.1085 25.1144 11.8187C25.1648 11.4076 25.4953 11.2119 25.82 11.0281C26.9058 10.4133 27.9728 9.76701 29.0579 9.15133C29.1333 9.10861 29.2248 9.08465 29.3086 9.06424Z" fill="#0D9488"/>
<path d="M29.3719 11.5394C29.6176 11.52 31.2204 12.5524 31.4819 12.7157C31.5686 12.77 31.5464 14.8717 31.5149 15.0981C31.4528 15.1938 29.7485 16.172 29.5132 16.2915C29.4892 16.2926 29.4654 16.2936 29.4412 16.2932C29.2837 16.2909 27.4707 15.2248 27.3343 15.0818C27.32 14.8365 27.329 14.5046 27.3288 14.2509L27.33 12.7523C27.5344 12.5504 29.0429 11.7163 29.3719 11.5394Z" fill="white"/>
<path d="M15.5611 32.3471C15.9343 32.0287 16.2651 31.7601 16.6629 31.4736C17.036 31.2049 17.3911 30.8492 17.7434 30.5533C17.8341 30.4717 18.0325 30.3442 18.1242 30.2432C18.7203 29.7293 19.3087 29.2248 19.8306 28.6389C20.5511 27.8267 21.2437 26.9906 21.907 26.1318C22.1425 25.825 22.376 25.5168 22.6074 25.207C22.7361 25.0349 22.932 24.7553 23.0763 24.6146C23.3259 24.3715 23.6701 24.2482 24.0185 24.2773C24.342 24.3062 24.6399 24.4635 24.8451 24.7133C25.1556 25.0853 25.2012 25.7057 24.9256 26.1101C24.6239 26.5529 24.283 26.9937 23.9548 27.418C23.3547 28.2004 22.7316 28.965 22.0866 29.7111C21.8774 29.9486 21.6594 30.1869 21.4336 30.408C21.3836 30.4568 21.15 30.6962 21.1004 30.7356C20.9645 30.8436 20.9012 30.9178 20.7631 31.0409C20.1681 31.5713 19.6712 32.0076 19.0654 32.5267C17.8592 33.5404 16.6022 34.4932 15.2991 35.3808C14.8379 35.6945 14.3754 35.9836 13.912 36.2892C14.254 37.2348 14.1704 38.3264 13.7418 39.2307C13.3009 40.1611 12.4752 40.9342 11.4938 41.2789C10.709 41.5545 9.87196 41.6019 9.07081 41.3703C8.92103 41.3269 8.76473 41.284 8.62472 41.2144C8.54171 41.1732 8.44089 41.1123 8.40612 41.0215C8.38121 40.9564 8.404 40.8777 8.43774 40.8197C8.54796 40.6307 8.82853 40.4849 9.00864 40.3631C9.27231 40.1848 10.7693 39.243 10.8631 39.0691C10.9003 39.0002 10.907 38.9078 10.9082 38.831C10.9126 38.5496 10.8705 38.2564 10.8478 37.9754C10.8293 37.7465 10.8318 37.4996 10.7803 37.2758C10.7491 37.1398 10.6704 37.074 10.5539 37.0019C10.3589 36.8814 10.1388 36.7918 9.93515 36.6857C9.7031 36.5648 9.46186 36.3986 9.2157 36.3152C9.13706 36.2885 9.06078 36.2736 8.97887 36.2932C8.70885 36.3576 7.44392 37.2873 7.13047 37.5049C6.96571 37.6193 6.78019 37.7765 6.58993 37.8447C6.51853 37.8703 6.44803 37.8699 6.37988 37.8344C6.31467 37.8004 6.24837 37.7287 6.22873 37.6574C6.19361 37.5297 6.21909 37.3598 6.23221 37.2295C6.29946 36.5619 6.50239 35.9361 6.86615 35.3676C7.27727 34.7248 8.03835 34.0258 8.80532 33.8498C8.86696 33.8357 8.93171 33.8305 8.99168 33.8099C9.09706 33.7736 9.19333 33.7103 9.30375 33.6889C10.3083 33.4947 11.4087 33.6189 12.2762 34.1785C12.358 34.232 12.4391 34.2867 12.5193 34.3428C12.883 34.1017 13.2569 33.875 13.6192 33.6322C13.7045 33.5752 14.0042 33.4012 14.0653 33.3467C14.4924 33.0615 15.1226 32.4877 15.5611 32.3471Z" fill="#0D9488"/>
<path d="M14.0645 33.3467C14.4915 33.0615 15.7702 31.9594 16.2087 31.8188C15.9533 32.0444 14.3647 33.3482 14.0645 33.3467Z" fill="#0D9488"/>
<path d="M39.6226 18.0727C39.6846 18.1822 39.6466 18.6562 39.6364 18.8001L39.6319 18.7965C39.6148 18.5414 39.6185 18.3289 39.6226 18.0727Z" fill="#0D9488"/>
<path d="M63.76 32.24C62.8133 32.24 61.9333 32.0667 61.12 31.72C60.32 31.3733 59.6267 30.8933 59.04 30.28C58.4667 29.6533 58.0467 28.9267 57.78 28.1L60.04 27.12C60.4 27.9733 60.92 28.6467 61.6 29.14C62.28 29.62 63.0467 29.86 63.9 29.86C64.38 29.86 64.7933 29.7867 65.14 29.64C65.5 29.48 65.7733 29.2667 65.96 29C66.16 28.7333 66.26 28.4133 66.26 28.04C66.26 27.6 66.1267 27.24 65.86 26.96C65.6067 26.6667 65.22 26.44 64.7 26.28L61.84 25.36C60.68 25 59.8067 24.46 59.22 23.74C58.6333 23.02 58.34 22.1733 58.34 21.2C58.34 20.3467 58.5467 19.5933 58.96 18.94C59.3867 18.2867 59.9733 17.78 60.72 17.42C61.48 17.0467 62.3467 16.86 63.32 16.86C64.2133 16.86 65.0333 17.02 65.78 17.34C66.5267 17.6467 67.1667 18.08 67.7 18.64C68.2467 19.1867 68.6533 19.8333 68.92 20.58L66.68 21.58C66.3867 20.8333 65.9467 20.26 65.36 19.86C64.7733 19.4467 64.0933 19.24 63.32 19.24C62.8667 19.24 62.4667 19.32 62.12 19.48C61.7733 19.6267 61.5 19.84 61.3 20.12C61.1133 20.3867 61.02 20.7067 61.02 21.08C61.02 21.4933 61.1533 21.86 61.42 22.18C61.6867 22.4867 62.0933 22.7267 62.64 22.9L65.38 23.76C66.5667 24.1467 67.4533 24.68 68.04 25.36C68.64 26.04 68.94 26.88 68.94 27.88C68.94 28.7333 68.72 29.4867 68.28 30.14C67.84 30.7933 67.2333 31.3067 66.46 31.68C65.6867 32.0533 64.7867 32.24 63.76 32.24ZM72.9892 32V17.1H75.7092V32H72.9892ZM80.1752 32V17.1H85.7352C86.7485 17.1 87.6418 17.2867 88.4152 17.66C89.2018 18.02 89.8152 18.5533 90.2552 19.26C90.6952 19.9533 90.9152 20.8 90.9152 21.8C90.9152 22.7867 90.6885 23.6333 90.2352 24.34C89.7952 25.0333 89.1885 25.5667 88.4152 25.94C87.6418 26.3133 86.7485 26.5 85.7352 26.5H82.8952V32H80.1752ZM82.8952 24.1H85.7752C86.2685 24.1 86.6952 24.0067 87.0552 23.82C87.4152 23.62 87.6952 23.3467 87.8952 23C88.0952 22.6533 88.1952 22.2533 88.1952 21.8C88.1952 21.3333 88.0952 20.9333 87.8952 20.6C87.6952 20.2533 87.4152 19.9867 87.0552 19.8C86.6952 19.6 86.2685 19.5 85.7752 19.5H82.8952V24.1ZM102.084 32.24C100.991 32.24 99.9706 32.0467 99.0239 31.66C98.0772 31.2733 97.2506 30.7333 96.5439 30.04C95.8372 29.3467 95.2839 28.5333 94.8839 27.6C94.4972 26.6533 94.3039 25.6333 94.3039 24.54C94.3039 23.4333 94.4972 22.4133 94.8839 21.48C95.2706 20.5467 95.8172 19.7333 96.5239 19.04C97.2306 18.3467 98.0572 17.8133 99.0039 17.44C99.9506 17.0533 100.977 16.86 102.084 16.86C103.191 16.86 104.217 17.0533 105.164 17.44C106.111 17.8267 106.937 18.3667 107.644 19.06C108.351 19.74 108.897 20.5467 109.284 21.48C109.684 22.4133 109.884 23.4333 109.884 24.54C109.884 25.6333 109.684 26.6533 109.284 27.6C108.884 28.5333 108.331 29.3467 107.624 30.04C106.917 30.7333 106.091 31.2733 105.144 31.66C104.211 32.0467 103.191 32.24 102.084 32.24ZM102.084 29.76C102.817 29.76 103.491 29.6333 104.104 29.38C104.717 29.1133 105.251 28.7467 105.704 28.28C106.171 27.8133 106.524 27.26 106.764 26.62C107.017 25.98 107.144 25.2867 107.144 24.54C107.144 23.7933 107.017 23.1067 106.764 22.48C106.524 21.84 106.171 21.2867 105.704 20.82C105.251 20.34 104.717 19.9733 104.104 19.72C103.491 19.4667 102.817 19.34 102.084 19.34C101.364 19.34 100.697 19.4667 100.084 19.72C99.4706 19.9733 98.9306 20.34 98.4639 20.82C98.0106 21.2867 97.6572 21.84 97.4039 22.48C97.1506 23.1067 97.0239 23.7933 97.0239 24.54C97.0239 25.2867 97.1506 25.98 97.4039 26.62C97.6572 27.26 98.0106 27.8133 98.4639 28.28C98.9306 28.7467 99.4706 29.1133 100.084 29.38C100.697 29.6333 101.364 29.76 102.084 29.76ZM113.903 32V17.1H119.443C120.456 17.1 121.349 17.2867 122.123 17.66C122.909 18.02 123.523 18.5533 123.963 19.26C124.403 19.9533 124.623 20.8 124.623 21.8C124.623 22.8267 124.376 23.7 123.883 24.42C123.403 25.14 122.749 25.6733 121.923 26.02L125.343 32H122.263L118.603 25.46L120.363 26.5H116.623V32H113.903ZM116.623 24.1H119.483C119.976 24.1 120.403 24.0067 120.763 23.82C121.123 23.62 121.403 23.3467 121.603 23C121.803 22.6533 121.903 22.2533 121.903 21.8C121.903 21.3333 121.803 20.9333 121.603 20.6C121.403 20.2533 121.123 19.9867 120.763 19.8C120.403 19.6 119.976 19.5 119.483 19.5H116.623V24.1ZM129.045 27.72V25.42H137.545V27.72H129.045ZM142.317 32V17.1H144.917L150.497 24.68H149.257L154.717 17.1H157.317V32H154.577V20.2L155.637 20.46L149.977 28H149.657L144.137 20.46L145.037 20.2V32H142.317ZM160.549 32L165.689 17.1H169.209L174.349 32H171.389L170.329 28.8H164.569L163.489 32H160.549ZM165.349 26.4H169.549L167.069 18.98H167.829L165.349 26.4Z" fill="#0D9488"/>
</svg>
