<svg width="300" height="300" viewBox="0 0 300 300" fill="none" xmlns="http://www.w3.org/2000/svg">
<path d="M196.226 194.987C203.662 185.689 207.04 172.957 206.032 160.832C204.429 141.542 182.638 128.71 165.72 139.948C158.901 144.478 151.328 154.893 146.155 161.561C142.649 166.141 139.062 170.66 135.396 175.116C126.168 186.207 117.011 194.984 101.877 196.942C90.3459 198.41 78.7002 195.268 69.5035 188.209C59.5439 180.584 53.1031 169.295 51.6387 156.895C50.9891 151.83 51.2454 147.022 51.9052 141.97C53.5566 129.326 58.3241 117.869 66.2165 107.792C77.6847 93.0824 94.5823 83.5128 113.174 81.1985C123.264 79.9548 132.201 81.0307 141.859 83.8886C135.363 87.6483 125.783 93.585 120.607 99.0055C106.699 99.2724 93.4842 105.084 83.9408 115.131C74.594 124.862 69.4918 137.996 69.5758 151.381C69.6233 158.966 73.0331 166.958 78.6472 171.93C91.5199 183.327 106.839 180.523 117.51 167.966C124.41 159.848 130.814 151.868 137.31 143.438C148.34 129.564 158.988 118.458 178.021 117.707C189.635 117.249 200.941 121.579 209.484 129.309C219.183 138.086 224.144 150.562 224.548 163.428C224.891 174.346 222.326 185.9 217.235 195.602C216.514 196.978 215.177 199.591 214.231 200.711C211.088 206.849 202.985 213.962 197.644 218.287C196.417 219.28 192.539 221.7 191.101 222.313L190.625 222.526C186.98 224.621 182.913 226.295 178.938 227.681C167.032 231.829 149.507 233.375 137.516 228.791C138.892 227.773 139.923 226.979 141.216 225.835C142.196 224.774 143.787 223.687 144.907 222.665C146.778 221.017 148.598 219.308 150.468 217.657C151.21 217.003 158.185 211.891 151.666 217.506C153.18 216.012 153.879 214.876 155.742 213.879C160.12 214.018 162.98 214.087 167.312 213.16C169.788 211.898 173.786 210.691 176.579 209.388C184.859 205.52 189.763 201.012 196.226 194.987Z" fill="#66B18C"/>
<path d="M196.226 194.987C195.434 196.422 194.025 197.944 192.912 199.182C187.176 205.564 179.894 209.77 171.664 212.171C170.498 212.511 168.53 213.016 167.312 213.16C169.788 211.898 173.786 210.691 176.579 209.388C184.859 205.521 189.763 201.012 196.226 194.987Z" fill="#66B18C"/>
<path d="M190.585 222.139C191.014 221.751 191.925 221.253 192.462 220.922C197.039 218.108 201.124 214.723 204.959 210.976C208.083 207.924 210.772 204.57 213.443 201.132C213.618 200.906 213.971 200.793 214.231 200.711C211.088 206.849 202.985 213.962 197.644 218.287C196.417 219.28 192.539 221.7 191.101 222.313L190.585 222.139Z" fill="#66B18C"/>
<path d="M141.216 225.835C142.196 224.774 143.787 223.687 144.907 222.665C146.778 221.017 148.598 219.308 150.468 217.657C151.21 217.003 150.748 217.491 151.666 217.506C151.048 218.131 150.122 218.959 149.576 219.561L148.421 220.69C146.906 222.117 143.181 225.497 141.216 225.835Z" fill="#66B18C"/>
<path d="M219.816 37.9817C221.605 37.8424 222.654 38.0085 224.216 38.8845C226.219 40.0077 228.189 41.2084 230.163 42.3786L239.928 48.0796L246.601 51.9226C251.014 54.4593 253.353 55.4454 253.303 61.1485C253.265 65.416 253.293 69.8303 253.299 74.1053L253.313 83.6035C253.333 92.4195 253.735 92.6475 245.932 97.1724L238.412 101.521C233.743 104.22 229.139 106.987 224.439 109.676C219.934 112.254 217.244 109.643 213.406 107.5C211.997 106.712 210.611 105.865 209.218 105.053L190.881 94.3817C177.066 97.39 165.959 100.423 153.407 107.416C137.868 116.073 127.903 128.062 117.085 141.738C113.888 145.694 110.795 149.94 107.652 153.958C105.916 156.163 104.463 158.717 102.385 160.627C99.7011 163.093 95.2917 163.482 92.1679 161.659C89.9827 160.4 88.4227 158.298 87.8615 155.854C87.2876 153.404 87.639 150.877 89.0814 148.812C90.7275 146.456 92.5272 144.071 94.2483 141.764C98.0954 136.585 102.052 131.486 106.114 126.472C131.181 95.4554 149.242 84.9636 188.221 76.3849L188.209 65.3349C188.203 63.1396 188.094 60.8133 188.36 58.6405C188.737 55.5569 191.216 54.0888 193.651 52.711C201.795 48.0995 209.798 43.2525 217.936 38.6349C218.501 38.3145 219.187 38.1348 219.816 37.9817Z" fill="#0C5C36"/>
<path d="M220.293 56.5455C222.136 56.4003 234.156 64.143 236.118 65.3678C236.768 65.7752 236.602 81.5376 236.365 83.2358C235.899 83.9534 223.117 91.2902 221.352 92.186C221.172 92.1946 220.994 92.2018 220.812 92.1992C219.632 92.1819 206.033 84.186 205.011 83.1135C204.903 81.2735 204.971 78.7844 204.969 76.8818L204.978 65.6423C206.512 64.1281 217.825 57.8723 220.293 56.5455Z" fill="#0C5C36"/>
<path d="M116.714 212.603C119.513 210.215 121.994 208.201 124.977 206.052C127.776 204.037 130.439 201.369 133.081 199.15C133.762 198.538 135.25 197.582 135.937 196.824C140.408 192.97 144.821 189.186 148.735 184.792C154.139 178.701 159.333 172.43 164.308 165.989C166.074 163.688 167.826 161.376 169.561 159.053C170.526 157.762 171.996 155.665 173.078 154.61C174.95 152.786 177.531 151.862 180.145 152.08C182.571 152.297 184.805 153.476 186.344 155.35C188.672 158.14 189.015 162.792 186.947 165.826C184.685 169.147 182.128 172.453 179.666 175.635C175.166 181.503 170.492 187.238 165.655 192.833C164.087 194.615 162.452 196.402 160.757 198.06C160.383 198.426 158.631 200.221 158.259 200.517C157.239 201.327 156.765 201.884 155.729 202.806C151.267 206.785 147.54 210.057 142.996 213.951C133.95 221.553 124.522 228.699 114.749 235.356C111.29 237.709 107.821 239.877 104.346 242.169C106.91 249.261 106.283 257.448 103.069 264.23C99.7623 271.209 93.5694 277.006 86.2092 279.592C80.3233 281.659 74.0454 282.015 68.0368 280.277C66.9134 279.952 65.7412 279.63 64.6911 279.108C64.0685 278.799 63.3124 278.342 63.0516 277.661C62.8648 277.173 63.0357 276.583 63.2888 276.148C64.1154 274.73 66.2197 273.637 67.5705 272.723C69.5481 271.386 80.7754 264.322 81.4793 263.019C81.7583 262.501 81.8082 261.809 81.8172 261.233C81.85 259.122 81.5345 256.923 81.364 254.815C81.2252 253.099 81.2441 251.247 80.858 249.568C80.6238 248.549 80.0334 248.055 79.1602 247.515C77.6975 246.611 76.0465 245.938 74.5194 245.143C72.779 244.236 70.9697 242.99 69.1235 242.364C68.5337 242.164 67.9616 242.052 67.3473 242.199C65.3221 242.682 55.8351 249.655 53.4843 251.287C52.2485 252.145 50.8571 253.324 49.4302 253.835C48.8947 254.027 48.366 254.024 47.8548 253.758C47.3658 253.503 46.8685 252.965 46.7212 252.431C46.4578 251.473 46.6489 250.198 46.7473 249.221C47.2517 244.214 48.7737 239.521 51.5019 235.257C54.5852 230.436 60.2934 225.193 66.0456 223.874C66.5079 223.768 66.9935 223.729 67.4433 223.575C68.2337 223.302 68.9557 222.828 69.7839 222.666C77.3179 221.21 85.5711 222.142 92.077 226.339C92.691 226.74 93.2988 227.15 93.9001 227.571C96.6279 225.763 99.4322 224.063 102.15 222.242C102.789 221.814 105.037 220.509 105.495 220.1C108.699 217.961 113.425 213.658 116.714 212.603Z" fill="#0C5C36"/>
<path d="M105.495 220.1C108.699 217.961 118.289 209.696 121.577 208.641C119.662 210.333 107.747 220.112 105.495 220.1Z" fill="#0C5C36"/>
<path d="M297.18 105.545C297.645 106.366 297.36 109.922 297.283 111.001L297.249 110.974C297.121 109.06 297.149 107.467 297.18 105.545Z" fill="#0C5C36"/>
</svg>
