<svg width="24" height="24" viewBox="0 0 24 24" fill="none" xmlns="http://www.w3.org/2000/svg">
<path d="M11 11L6 6" stroke="#1D4ED8" stroke-width="1.5"/>
<path d="M4.99921 7.49999L7.49921 4.99999L4.49921 3.49999L3.49921 4.49999L4.99921 7.49999ZM19.9742 8.97499C20.4543 8.49531 20.7846 7.88639 20.9249 7.22237C21.0651 6.55834 21.0093 5.86786 20.7642 5.23499L19.3422 6.65699H17.3422V4.65699L18.7642 3.23499C18.1313 2.98933 17.4406 2.93305 16.7763 3.07301C16.1119 3.21297 15.5026 3.54311 15.0226 4.02323C14.5426 4.50335 14.2126 5.11272 14.0728 5.77708C13.933 6.44145 13.9894 7.13213 14.2352 7.76499L7.76521 14.236C7.13235 13.9902 6.44166 13.9338 5.7773 14.0736C5.11293 14.2134 4.50357 14.5434 4.02345 15.0234C3.54333 15.5034 3.21318 16.1127 3.07322 16.777C2.93327 17.4414 2.98955 18.1321 3.23521 18.765L4.65621 17.343H6.65621V19.343L5.23421 20.765C5.86696 21.0106 6.55749 21.067 7.22171 20.9272C7.88593 20.7874 8.49517 20.4575 8.97524 19.9777C9.4553 19.4978 9.78548 18.8887 9.92556 18.2246C10.0656 17.5604 10.0096 16.8699 9.76421 16.237L16.2362 9.76499C16.8688 10.0097 17.5589 10.0653 18.2225 9.92502C18.8861 9.78477 19.4947 9.45471 19.9742 8.97499Z" stroke="#1D4ED8" stroke-width="1.5" stroke-linejoin="round"/>
<path d="M11.7969 14.5L17.4009 20.104C17.5263 20.2296 17.6752 20.3293 17.8392 20.3973C18.0031 20.4653 18.1789 20.5003 18.3564 20.5003C18.5339 20.5003 18.7096 20.4653 18.8736 20.3973C19.0375 20.3293 19.1865 20.2296 19.3119 20.104L20.1039 19.312C20.2295 19.1866 20.3292 19.0377 20.3972 18.8737C20.4652 18.7098 20.5002 18.534 20.5002 18.3565C20.5002 18.179 20.4652 18.0032 20.3972 17.8393C20.3292 17.6753 20.2295 17.5264 20.1039 17.401L14.4999 11.797" stroke="#1D4ED8" stroke-width="1.5" stroke-linejoin="round"/>
</svg>
