<svg width="24" height="24" viewBox="0 0 24 24" fill="none" xmlns="http://www.w3.org/2000/svg">
<path d="M20.9841 5C21.0341 4.29 20.9741 3.839 20.6721 3.507C20.2121 3 19.3961 3 17.7661 3H6.23409C4.60409 3 3.78909 3 3.32809 3.507C2.86709 4.015 2.96809 4.801 3.17009 6.373C3.23009 6.832 3.32809 7.093 3.62709 7.449C4.59609 8.599 6.36909 10.646 8.85709 12.506C9.08509 12.676 9.23409 12.954 9.25909 13.261C9.53909 16.686 9.79609 19.026 9.93309 20.178C10.0041 20.782 10.6741 21.247 11.2261 20.856C12.1531 20.201 13.8861 19.466 14.1141 18.244C14.1991 17.794 14.3141 17.08 14.4451 16" stroke="#0A6F66" stroke-width="1.5" stroke-linecap="round" stroke-linejoin="round"/>
<path d="M15.013 6L14.513 8.084L15.343 7.566C15.953 7.10172 16.6985 6.85053 17.465 6.851C19.417 6.851 21 8.451 21 10.426C21 12.4 19.417 14 17.465 14C15.755 14 14.328 12.772 14 11.14" stroke="#0A6F66" stroke-width="1.5" stroke-linecap="round" stroke-linejoin="round"/>
</svg>
