<svg width="18" height="21" viewBox="0 0 18 21" fill="none" xmlns="http://www.w3.org/2000/svg">
<path d="M16.9016 13.8948C16.827 13.8049 16.7538 13.7151 16.6819 13.6284C15.6937 12.433 15.0957 11.7116 15.0957 8.32762C15.0957 6.57566 14.6766 5.13816 13.8505 4.06004C13.2414 3.26357 12.418 2.65938 11.3326 2.21285C11.3187 2.20508 11.3062 2.19489 11.2958 2.18275C10.9054 0.875527 9.83719 0 8.63239 0C7.42758 0 6.35979 0.875527 5.96942 2.18141C5.95902 2.19312 5.94672 2.20299 5.93303 2.21061C3.40034 3.25324 2.16948 5.25361 2.16948 8.32627C2.16948 11.7116 1.57246 12.433 0.583285 13.6271C0.51141 13.7137 0.438188 13.8018 0.363617 13.8934C0.170993 14.1257 0.048949 14.4084 0.01193 14.7079C-0.0250891 15.0074 0.0244659 15.3112 0.15473 15.5834C0.431898 16.1674 1.02262 16.5299 1.6969 16.5299H15.5728C16.2439 16.5299 16.8306 16.1678 17.1087 15.5865C17.2395 15.3143 17.2895 15.0102 17.2528 14.7103C17.2161 14.4105 17.0942 14.1275 16.9016 13.8948ZM8.63239 20.125C9.28152 20.1245 9.91842 19.9483 10.4755 19.6151C11.0326 19.2819 11.4891 18.8041 11.7967 18.2324C11.8112 18.205 11.8183 18.1744 11.8175 18.1434C11.8166 18.1124 11.8077 18.0822 11.7917 18.0556C11.7757 18.0291 11.7531 18.0072 11.7261 17.9919C11.6991 17.9767 11.6687 17.9687 11.6377 17.9688H5.62801C5.59698 17.9686 5.56645 17.9766 5.5394 17.9918C5.51234 18.007 5.48968 18.0289 5.47362 18.0554C5.45757 18.082 5.44866 18.1123 5.44777 18.1433C5.44688 18.1743 5.45403 18.205 5.46854 18.2324C5.77604 18.804 6.2325 19.2818 6.78951 19.615C7.34653 19.9481 7.98333 20.1244 8.63239 20.125Z" fill="#0D9488"/>
</svg>
