<svg width="24" height="24" viewBox="0 0 24 24" fill="none" xmlns="http://www.w3.org/2000/svg">
<mask id="path-1-inside-1_1006_1098" fill="white">
<path d="M9.55018 15.15L18.0252 6.675C18.2252 6.475 18.4585 6.375 18.7252 6.375C18.9918 6.375 19.2252 6.475 19.4252 6.675C19.6252 6.875 19.7252 7.11267 19.7252 7.388C19.7252 7.66333 19.6252 7.90067 19.4252 8.1L10.2502 17.3C10.0502 17.5 9.81685 17.6 9.55018 17.6C9.28351 17.6 9.05018 17.5 8.85018 17.3L4.55018 13C4.35018 12.8 4.25418 12.5627 4.26218 12.288C4.27018 12.0133 4.37451 11.7757 4.57518 11.575C4.77585 11.3743 5.01351 11.2743 5.28818 11.275C5.56285 11.2757 5.80018 11.3757 6.00018 11.575L9.55018 15.15Z"/>
</mask>
<path d="M9.55018 15.15L18.0252 6.675C18.2252 6.475 18.4585 6.375 18.7252 6.375C18.9918 6.375 19.2252 6.475 19.4252 6.675C19.6252 6.875 19.7252 7.11267 19.7252 7.388C19.7252 7.66333 19.6252 7.90067 19.4252 8.1L10.2502 17.3C10.0502 17.5 9.81685 17.6 9.55018 17.6C9.28351 17.6 9.05018 17.5 8.85018 17.3L4.55018 13C4.35018 12.8 4.25418 12.5627 4.26218 12.288C4.27018 12.0133 4.37451 11.7757 4.57518 11.575C4.77585 11.3743 5.01351 11.2743 5.28818 11.275C5.56285 11.2757 5.80018 11.3757 6.00018 11.575L9.55018 15.15Z" fill="#0A6F66"/>
<path d="M9.55018 15.15L6.00226 18.6731L9.53775 22.2335L13.0857 18.6855L9.55018 15.15ZM19.4252 8.1L15.8956 4.55857L15.8902 4.56392L15.8848 4.56928L19.4252 8.1ZM10.2502 17.3L13.7857 20.8355L13.7905 20.8307L10.2502 17.3ZM8.85018 17.3L12.3857 13.7645V13.7645L8.85018 17.3ZM4.55018 13L1.01465 16.5355H1.01465L4.55018 13ZM6.00018 11.575L9.5481 8.05189L9.53898 8.04271L9.52981 8.03357L6.00018 11.575ZM9.55018 15.15L13.0857 18.6855L21.5607 10.2105L18.0252 6.675L14.4896 3.13947L6.01465 11.6145L9.55018 15.15ZM18.0252 6.675L21.5607 10.2105C21.2622 10.5091 20.8509 10.8181 20.3198 11.0457C19.7829 11.2758 19.2342 11.375 18.7252 11.375V6.375V1.375C17.0457 1.375 15.5642 2.06491 14.4896 3.13947L18.0252 6.675ZM18.7252 6.375V11.375C18.2162 11.375 17.6675 11.2758 17.1306 11.0457C16.5994 10.8181 16.1882 10.509 15.8896 10.2105L19.4252 6.675L22.9607 3.13947C21.8862 2.06492 20.4046 1.375 18.7252 1.375V6.375ZM19.4252 6.675L15.8896 10.2105C15.5765 9.89741 15.2659 9.47556 15.0415 8.94239C14.8161 8.40655 14.7252 7.87058 14.7252 7.388H19.7252H24.7252C24.7252 5.74663 24.0698 4.24851 22.9607 3.13947L19.4252 6.675ZM19.7252 7.388H14.7252C14.7252 6.90548 14.816 6.36848 15.0425 5.83105C15.2679 5.29614 15.5803 4.87282 15.8956 4.55857L19.4252 8.1L22.9548 11.6414C24.0691 10.5308 24.7252 9.02991 24.7252 7.388H19.7252ZM19.4252 8.1L15.8848 4.56928L6.70984 13.7693L10.2502 17.3L13.7905 20.8307L22.9655 11.6307L19.4252 8.1ZM10.2502 17.3L6.71465 13.7645C7.01316 13.466 7.42443 13.1569 7.95557 12.9293C8.49249 12.6992 9.04117 12.6 9.55018 12.6V17.6V22.6C11.2296 22.6 12.7112 21.9101 13.7857 20.8355L10.2502 17.3ZM9.55018 17.6V12.6C10.0592 12.6 10.6079 12.6992 11.1448 12.9293C11.6759 13.1569 12.0872 13.466 12.3857 13.7645L8.85018 17.3L5.31465 20.8355C6.38919 21.9101 7.87073 22.6 9.55018 22.6V17.6ZM8.85018 17.3L12.3857 13.7645L8.08571 9.46447L4.55018 13L1.01465 16.5355L5.31465 20.8355L8.85018 17.3ZM4.55018 13L8.08571 9.46447C8.41003 9.78878 8.73471 10.2319 8.96335 10.7971C9.1933 11.3656 9.2747 11.931 9.26006 12.4336L4.26218 12.288L-0.7357 12.1424C-0.785087 13.838 -0.12652 15.3944 1.01465 16.5355L4.55018 13ZM4.26218 12.288L9.26006 12.4336C9.24646 12.9007 9.14589 13.4097 8.92471 13.9136C8.70476 14.4146 8.40863 14.8126 8.11071 15.1105L4.57518 11.575L1.03965 8.03947C-0.0303459 9.10946 -0.689233 10.5471 -0.7357 12.1424L4.26218 12.288ZM4.57518 11.575L8.11071 15.1105C7.79955 15.4217 7.37817 15.733 6.84306 15.9582C6.30468 16.1847 5.76446 16.2762 5.27604 16.275L5.28818 11.275L5.30032 6.27501C3.64677 6.271 2.14604 6.93307 1.03965 8.03947L4.57518 11.575ZM5.28818 11.275L5.27604 16.275C4.79528 16.2738 4.26266 16.1823 3.73074 15.9582C3.20151 15.7352 2.78228 15.4271 2.47055 15.1164L6.00018 11.575L9.52981 8.03357C8.42488 6.93232 6.93475 6.27898 5.30032 6.27501L5.28818 11.275ZM6.00018 11.575L2.45226 15.0981L6.00226 18.6731L9.55018 15.15L13.0981 11.6269L9.5481 8.05189L6.00018 11.575Z" fill="#0A6F66" mask="url(#path-1-inside-1_1006_1098)"/>
</svg>
